<?xml version="1.0" encoding="utf-8"?>
<!-- Generator: Adobe Illustrator 27.1.0, SVG Export Plug-In . SVG Version: 6.00 Build 0)  -->
<svg version="1.1" id="Layer_1" xmlns="http://www.w3.org/2000/svg" xmlns:xlink="http://www.w3.org/1999/xlink" x="0px" y="0px"
	 viewBox="0 0 1150 730" style="enable-background:new 0 0 1150 730;" xml:space="preserve">
<style type="text/css">
	.st0{fill:#E4EDF2;}
	.st1{fill:#CEE3ED;}
	.st2{fill:#D1DCF8;}
	.st3{fill:#F1F6F9;}
	.st4{fill:#FFFFFF;}
	.st5{fill:#F4A261;}
	.st6{opacity:0.1;}
	.st7{fill:#6ED8CC;}
	.st8{fill:#9CBED3;}
	.st9{opacity:0.2;fill:#FFFFFF;}
	.st10{fill:none;stroke:#231F20;stroke-miterlimit:10;}
	.st11{fill:#F8C8A0;}
	.st12{fill:#343A40;}
	.st13{fill:none;stroke:#000000;stroke-width:0.75;stroke-miterlimit:10;}
	.st14{fill:#335D99;}
	.st15{opacity:0.6;}
	.st16{opacity:0.9;}
	.st17{fill:url(#SVGID_1_);}
	.st18{fill:url(#SVGID_00000023239989768606615630000006830438748992771992_);}
	.st19{fill:#D1D1E8;}
	.st20{fill:url(#SVGID_00000093161027775584621980000002082152292961284252_);}
	.st21{fill:url(#SVGID_00000067229845581939385760000007452501409447214761_);}
	.st22{fill:url(#SVGID_00000060720974446909549600000017846159855452936875_);}
	.st23{fill:url(#SVGID_00000096766137081076567020000004471038215670982555_);}
	.st24{fill:url(#SVGID_00000052793421863085528420000012297700261876306092_);}
	.st25{fill:#15ADE0;}
	.st26{fill:#E94957;}
	.st27{fill:none;stroke:#FFFFFF;stroke-width:1.4248;stroke-linecap:round;stroke-linejoin:round;stroke-miterlimit:10;}
</style>
<g id="Storage_Racks">
	<g>
		<g>
			<g>
				<g>
					<g>
						<g>
							<g>
								<g>
									<path class="st0" d="M1062.73,195.79v38.07c0,0.89-0.71,1.62-1.6,1.62h-49.72c-0.89,0-1.62-0.73-1.62-1.62v-38.07
										c0-0.89,0.73-1.6,1.62-1.6h49.72c0.3,0,0.6,0.08,0.84,0.24C1062.43,194.72,1062.73,195.21,1062.73,195.79z"/>
								</g>
							</g>
						</g>
						<g>
							<g>
								<g>
									<path class="st1" d="M1031.65,194.19v7.04c0,0.37,0.45,0.55,0.7,0.29l3.62-3.7c0.16-0.16,0.43-0.16,0.59,0l3.62,3.7
										c0.26,0.26,0.7,0.08,0.7-0.29v-7.04H1031.65z"/>
								</g>
							</g>
						</g>
					</g>
				</g>
				<g>
					<g>
						<g>
							<g>
								<path class="st2" d="M1138.49,237.47v14.21c0,1.11-0.96,1.98-2.2,1.98H889.12c-1.2,0-2.2-0.87-2.2-1.98v-14.21
									c0-1.11,1-1.98,2.2-1.98h247.18C1137.52,235.49,1138.49,236.36,1138.49,237.47z"/>
							</g>
						</g>
						<g>
							<g>
								<path class="st2" d="M1138.49,343.65v14.21c0,1.11-0.96,1.98-2.2,1.98H889.12c-1.2,0-2.2-0.87-2.2-1.98v-14.21
									c0-1.11,1-1.98,2.2-1.98h247.18C1137.52,341.67,1138.49,342.54,1138.49,343.65z"/>
							</g>
						</g>
						<g>
							<g>
								<path class="st2" d="M1138.49,449.83v14.21c0,1.11-0.96,1.98-2.2,1.98H889.12c-1.2,0-2.2-0.87-2.2-1.98v-14.21
									c0-1.11,1-1.98,2.2-1.98h247.18C1137.52,447.85,1138.49,448.72,1138.49,449.83z"/>
							</g>
						</g>
						<g>
							<g>
								<path class="st3" d="M1138.49,237.47v14.21c0,1.11-0.96,1.98-2.2,1.98H889.12c-1.2,0-2.2-0.87-2.2-1.98v-14.21
									c0-1.11,1-1.98,2.2-1.98h247.18C1137.52,235.49,1138.49,236.36,1138.49,237.47z"/>
							</g>
						</g>
						<g>
							<g>
								<path class="st3" d="M1138.49,343.65v14.21c0,1.11-0.96,1.98-2.2,1.98H889.12c-1.2,0-2.2-0.87-2.2-1.98v-14.21
									c0-1.11,1-1.98,2.2-1.98h247.18C1137.52,341.67,1138.49,342.54,1138.49,343.65z"/>
							</g>
						</g>
						<g>
							<g>
								<path class="st3" d="M1138.49,449.83v14.21c0,1.11-0.96,1.98-2.2,1.98H889.12c-1.2,0-2.2-0.87-2.2-1.98v-14.21
									c0-1.11,1-1.98,2.2-1.98h247.18C1137.52,447.85,1138.49,448.72,1138.49,449.83z"/>
							</g>
						</g>
						<g>
							<g>
								<g>
									<g>
										<path class="st4" d="M919.48,206.22v344.43c0,2.07-1.9,3.75-4.25,3.75h-17.85c-2.35,0-4.25-1.68-4.25-3.75V206.22
											c0-2.07,1.9-3.75,4.25-3.75h17.85C917.58,202.47,919.48,204.15,919.48,206.22z"/>
									</g>
								</g>
								<g>
									<g>
										<path class="st4" d="M1132.27,206.22v344.43c0,2.07-1.9,3.75-4.25,3.75h-17.85c-2.35,0-4.25-1.68-4.25-3.75V206.22
											c0-2.07,1.9-3.75,4.25-3.75h17.85C1130.37,202.47,1132.27,204.15,1132.27,206.22z"/>
									</g>
								</g>
							</g>
							<g>
								<g>
									<g>
										<path class="st3" d="M919.48,206.22v344.43c0,2.07-1.9,3.75-4.25,3.75h-17.85c-2.35,0-4.25-1.68-4.25-3.75V206.22
											c0-2.07,1.9-3.75,4.25-3.75h17.85C917.58,202.47,919.48,204.15,919.48,206.22z"/>
									</g>
								</g>
								<g>
									<g>
										<path class="st3" d="M1132.27,206.22v344.43c0,2.07-1.9,3.75-4.25,3.75h-17.85c-2.35,0-4.25-1.68-4.25-3.75V206.22
											c0-2.07,1.9-3.75,4.25-3.75h17.85C1130.37,202.47,1132.27,204.15,1132.27,206.22z"/>
									</g>
								</g>
							</g>
						</g>
					</g>
				</g>
				<g>
					<g>
						<g>
							<g>
								<g>
									<path class="st0" d="M1096.17,301.98v38.07c0,0.89-0.71,1.62-1.6,1.62h-49.72c-0.89,0-1.62-0.73-1.62-1.62v-38.07
										c0-0.89,0.73-1.6,1.62-1.6h49.72c0.3,0,0.6,0.08,0.84,0.24C1095.86,300.9,1096.17,301.39,1096.17,301.98z"/>
								</g>
							</g>
						</g>
						<g>
							<g>
								<g>
									<path class="st1" d="M1065.08,300.37v9.03c0,0.37,0.45,0.55,0.7,0.29l3.62-3.7c0.16-0.17,0.43-0.17,0.59,0l3.62,3.7
										c0.26,0.26,0.7,0.08,0.7-0.29v-9.03H1065.08z"/>
								</g>
							</g>
						</g>
					</g>
				</g>
				<g>
					<g>
						<g>
							<g>
								<g>
									<path class="st0" d="M1040.32,292.5v47.16c0,1.1-0.88,2-1.98,2h-61.59c-1.1,0-2-0.9-2-2V292.5c0-1.1,0.9-1.98,2-1.98h61.59
										c0.37,0,0.75,0.1,1.04,0.29C1039.95,291.16,1040.32,291.77,1040.32,292.5z"/>
								</g>
							</g>
						</g>
						<g>
							<g>
								<g>
									<path class="st1" d="M1001.81,290.62v10.09c0,0.46,0.55,0.68,0.87,0.36l4.49-4.59c0.2-0.2,0.53-0.2,0.73,0l4.49,4.59
										c0.32,0.33,0.87,0.1,0.87-0.36v-10.09H1001.81z"/>
								</g>
							</g>
						</g>
					</g>
				</g>
				<g>
					<g>
						<g>
							<g>
								<g>
									<path class="st0" d="M1107.11,398.68v47.16c0,1.1-0.88,2-1.98,2h-61.59c-1.1,0-2-0.9-2-2v-47.16c0-1.1,0.9-1.98,2-1.98
										h61.59c0.37,0,0.75,0.1,1.04,0.29C1106.73,397.35,1107.11,397.95,1107.11,398.68z"/>
								</g>
							</g>
						</g>
						<g>
							<g>
								<g>
									<path class="st1" d="M1068.6,396.8v10.09c0,0.46,0.55,0.68,0.87,0.36l4.49-4.59c0.2-0.2,0.53-0.2,0.73,0l4.49,4.59
										c0.32,0.33,0.87,0.1,0.87-0.36V396.8H1068.6z"/>
								</g>
							</g>
						</g>
					</g>
				</g>
				<g>
					<g>
						<g>
							<g>
								<g>
									<path class="st0" d="M990.72,186.32v47.16c0,1.1-0.88,2-1.98,2h-61.59c-1.1,0-2-0.9-2-2v-47.16c0-1.1,0.9-1.98,2-1.98
										h61.59c0.37,0,0.75,0.1,1.04,0.29C990.35,184.98,990.72,185.59,990.72,186.32z"/>
								</g>
							</g>
						</g>
						<g>
							<g>
								<g>
									<path class="st1" d="M952.22,184.34v8.57c0,0.46,0.55,0.68,0.87,0.36l4.49-4.59c0.2-0.2,0.53-0.2,0.73,0l4.49,4.59
										c0.32,0.33,0.87,0.1,0.87-0.36v-8.57H952.22z"/>
								</g>
							</g>
						</g>
					</g>
				</g>
			</g>
		</g>
	</g>
</g>
<g>
	<g>
		<g>
			<g>
				<g>
					<g>
						<path class="st5" d="M776.75,616.79v58.93c0,1.38-1.11,2.5-2.48,2.5h-76.96c-1.38,0-2.5-1.13-2.5-2.5v-58.93
							c0-1.37,1.13-2.48,2.5-2.48h76.96c0.47,0,0.93,0.12,1.3,0.37C776.28,615.13,776.75,615.89,776.75,616.79z"/>
					</g>
				</g>
			</g>
			<g class="st6">
				<g>
					<g>
						<path d="M728.63,614.45v12.61c0,0.57,0.69,0.85,1.09,0.44l5.61-5.73c0.25-0.26,0.66-0.26,0.91,0l5.61,5.73
							c0.4,0.41,1.09,0.13,1.09-0.44v-12.61H728.63z"/>
					</g>
				</g>
			</g>
		</g>
	</g>
	<g>
		<g>
			<g>
				<g>
					<g>
						<path class="st5" d="M1109.46,600.13v74.73c0,1.74-1.4,3.18-3.14,3.18h-97.58c-1.74,0-3.18-1.43-3.18-3.18v-74.73
							c0-1.74,1.43-3.14,3.18-3.14h97.58c0.59,0,1.18,0.16,1.65,0.47C1108.87,598.01,1109.46,598.98,1109.46,600.13z"/>
					</g>
				</g>
			</g>
			<g class="st6">
				<g>
					<g>
						<path d="M1048.45,597.15v15.99c0,0.72,0.88,1.08,1.38,0.56l7.11-7.27c0.32-0.32,0.84-0.32,1.15,0l7.11,7.27
							c0.51,0.52,1.38,0.16,1.38-0.56v-15.99H1048.45z"/>
					</g>
				</g>
			</g>
		</g>
	</g>
	<g>
		<g>
			<g>
				<g>
					<g>
						<path class="st5" d="M887.69,599.95v75.09c0,1.75-1.41,3.19-3.16,3.19h-98.06c-1.75,0-3.19-1.44-3.19-3.19v-75.09
							c0-1.75,1.44-3.16,3.19-3.16h98.06c0.59,0,1.19,0.16,1.66,0.47C887.09,597.82,887.69,598.79,887.69,599.95z"/>
					</g>
				</g>
			</g>
			<g class="st6">
				<g>
					<g>
						<path d="M826.38,596.96v16.07c0,0.73,0.88,1.09,1.39,0.57l7.14-7.31c0.32-0.33,0.84-0.33,1.16,0l7.14,7.31
							c0.51,0.52,1.39,0.16,1.39-0.57v-16.07H826.38z"/>
					</g>
				</g>
			</g>
		</g>
	</g>
	<g>
		<g>
			<g>
				<g>
					<g>
						<path class="st5" d="M875.25,521.28v66.71c0,1.56-1.25,2.84-2.81,2.84h-87.11c-1.56,0-2.84-1.28-2.84-2.84v-66.71
							c0-1.56,1.28-2.81,2.84-2.81h87.11c0.53,0,1.06,0.14,1.47,0.42C874.73,519.39,875.25,520.25,875.25,521.28z"/>
					</g>
				</g>
			</g>
			<g class="st6">
				<g>
					<g>
						<path d="M820.79,518.62v14.27c0,0.65,0.78,0.96,1.24,0.5l6.35-6.49c0.28-0.29,0.75-0.29,1.03,0l6.35,6.49
							c0.45,0.46,1.23,0.14,1.23-0.5v-14.27H820.79z"/>
					</g>
				</g>
			</g>
		</g>
	</g>
	<g>
		<g>
			<g>
				<g>
					<g>
						<path class="st5" d="M976.01,521.28v66.71c0,1.56-1.25,2.84-2.81,2.84H886.1c-1.56,0-2.84-1.28-2.84-2.84v-66.71
							c0-1.56,1.28-2.81,2.84-2.81h87.11c0.53,0,1.06,0.14,1.47,0.42C975.48,519.39,976.01,520.25,976.01,521.28z"/>
					</g>
				</g>
			</g>
			<g class="st6">
				<g>
					<g>
						<path d="M921.55,518.62v14.27c0,0.65,0.78,0.96,1.23,0.5l6.35-6.49c0.28-0.29,0.75-0.29,1.03,0l6.35,6.49
							c0.45,0.46,1.23,0.14,1.23-0.5v-14.27H921.55z"/>
					</g>
				</g>
			</g>
		</g>
	</g>
	<g>
		<g>
			<g>
				<g>
					<g>
						<path class="st5" d="M1075.51,521.28v66.71c0,1.56-1.25,2.84-2.81,2.84h-87.11c-1.56,0-2.84-1.28-2.84-2.84v-66.71
							c0-1.56,1.28-2.81,2.84-2.81h87.11c0.53,0,1.06,0.14,1.47,0.42C1074.98,519.39,1075.51,520.25,1075.51,521.28z"/>
					</g>
				</g>
			</g>
			<g class="st6">
				<g>
					<g>
						<path d="M1021.04,518.62v14.27c0,0.65,0.78,0.96,1.23,0.5l6.35-6.49c0.28-0.29,0.75-0.29,1.03,0l6.35,6.49
							c0.45,0.46,1.23,0.14,1.23-0.5v-14.27H1021.04z"/>
					</g>
				</g>
			</g>
		</g>
	</g>
	<g>
		<g>
			<g>
				<g>
					<g>
						<path class="st5" d="M998.28,599.95v75.09c0,1.75-1.41,3.19-3.16,3.19h-98.06c-1.75,0-3.19-1.44-3.19-3.19v-75.09
							c0-1.75,1.44-3.16,3.19-3.16h98.06c0.59,0,1.19,0.16,1.66,0.47C997.68,597.82,998.28,598.79,998.28,599.95z"/>
					</g>
				</g>
			</g>
			<g class="st6">
				<g>
					<g>
						<path d="M936.97,596.96v16.07c0,0.73,0.88,1.09,1.39,0.57l7.14-7.31c0.32-0.33,0.84-0.33,1.16,0l7.14,7.31
							c0.51,0.52,1.39,0.16,1.39-0.57v-16.07H936.97z"/>
					</g>
				</g>
			</g>
		</g>
	</g>
	<g>
		<g>
			<g>
				<g>
					<g>
						<path class="st5" d="M927.37,442.97v66.71c0,1.56-1.25,2.84-2.81,2.84h-87.11c-1.56,0-2.84-1.28-2.84-2.84v-66.71
							c0-1.56,1.28-2.81,2.84-2.81h87.11c0.53,0,1.06,0.14,1.47,0.42C926.84,441.08,927.37,441.94,927.37,442.97z"/>
					</g>
				</g>
			</g>
			<g class="st6">
				<g>
					<g>
						<path d="M872.9,440.31v14.27c0,0.65,0.78,0.96,1.23,0.5l6.35-6.49c0.28-0.29,0.75-0.29,1.03,0l6.35,6.49
							c0.45,0.46,1.23,0.14,1.23-0.5v-14.27H872.9z"/>
					</g>
				</g>
			</g>
		</g>
	</g>
	<g>
		<g>
			<g>
				<g>
					<g>
						<path class="st5" d="M1054.72,422.78v86.07c0,2.01-1.61,3.66-3.62,3.66H938.7c-2.01,0-3.66-1.65-3.66-3.66v-86.07
							c0-2.01,1.65-3.62,3.66-3.62h112.39c0.68,0,1.36,0.18,1.9,0.54C1054.03,420.34,1054.72,421.45,1054.72,422.78z"/>
					</g>
				</g>
			</g>
			<g class="st6">
				<g>
					<g>
						<path d="M984.44,419.35v18.41c0,0.83,1.01,1.24,1.59,0.65l8.19-8.37c0.36-0.37,0.96-0.37,1.33,0l8.19,8.37
							c0.58,0.59,1.59,0.18,1.59-0.65v-18.41H984.44z"/>
					</g>
				</g>
			</g>
		</g>
	</g>
</g>
<g>
	<g>
		<path d="M541.68,679.51l-48.36-168.61c-0.7-2.43-2.3-4.43-4.5-5.66c-2.21-1.22-4.76-1.51-7.19-0.81l-43.7,12.62
			c-2.03,0.16-3.88-1.16-4.39-3.09c-0.49-1.86,0.39-3.86,2.12-4.77c14.57-4.21,29.13-8.42,43.7-12.62
			c4.53-1.31,9.29-0.77,13.42,1.51c4.12,2.28,7.11,6.03,8.41,10.56l48.36,168.61L541.68,679.51z"/>
	</g>
	<g>
		<path d="M547.24,686.32l-2.41-8.6l122.05-34.24c2.2-0.23,4.25,1.18,4.84,3.3c0.58,2.11-0.45,4.36-2.43,5.3
			C628.6,663.49,587.92,674.9,547.24,686.32z"/>
	</g>
	<g>
		<g>
			<g>
				<g>
					<g>
						<path class="st5" d="M632.18,568.4l21.38,75.98c0.5,1.77-0.52,3.63-2.29,4.13l-99.21,27.91c-1.77,0.5-3.64-0.55-4.14-2.32
							l-21.38-75.98c-0.5-1.77,0.56-3.61,2.33-4.1l99.21-27.91c0.6-0.17,1.25-0.18,1.81,0C630.97,566.42,631.85,567.23,632.18,568.4
							z"/>
					</g>
				</g>
			</g>
			<g class="st6">
				<g>
					<g>
						<path d="M569.3,582.83l4.57,16.25c0.21,0.73,1.2,0.85,1.57,0.18l5.15-9.42c0.23-0.42,0.76-0.57,1.17-0.33l9.31,5.36
							c0.66,0.38,1.45-0.23,1.25-0.97l-4.57-16.25L569.3,582.83z"/>
					</g>
				</g>
			</g>
		</g>
	</g>
	<g>
		<g>
			<g>
				<g>
					<g>
						<path class="st5" d="M586.56,513.54l15.54,55.73c0.36,1.3-0.38,2.66-1.68,3.02l-72.77,20.29c-1.3,0.36-2.67-0.41-3.03-1.71
							l-15.54-55.73c-0.36-1.3,0.41-2.64,1.71-3.01l72.77-20.29c0.44-0.12,0.91-0.13,1.33,0
							C585.68,512.08,586.32,512.68,586.56,513.54z"/>
					</g>
				</g>
			</g>
			<g class="st6">
				<g>
					<g>
						<path d="M540.44,524.01l3.32,11.92c0.15,0.54,0.88,0.62,1.15,0.13l3.79-6.9c0.17-0.31,0.56-0.42,0.86-0.24l6.81,3.94
							c0.48,0.28,1.06-0.17,0.91-0.71l-3.32-11.92L540.44,524.01z"/>
					</g>
				</g>
			</g>
		</g>
	</g>
	<circle cx="543.23" cy="681.17" r="35.38"/>
	<circle class="st7" cx="543.23" cy="681.17" r="20.17"/>
</g>
<g>
	<g>
		<g>
			<path class="st8" d="M147.55,719.98c1.1,0.69,2.25,0.62,3.89,0.54c5.3-0.25,10.61-0.22,15.91-0.37c3.87-0.11,4.63,0.17,9.84,0.37
				c5.17,0.2,12.54,0.22,21.75-0.6c0.75-0.7,2.19-2.24,2.06-4.15c-0.17-2.56-3.05-4.18-5.39-5.49c-3.14-1.76-4.43-1.56-8.43-3.06
				c-4.31-1.62-7.29-3.54-9.1-4.73c-2.36-1.54-5.49-3.88-8.67-7.26c-7.82,0.18-15.64,0.35-23.46,0.53c0.12,1.09,0.26,2.72,0.25,4.69
				c-0.01,4.72-0.83,5.94-0.94,10.21C145.16,714.49,145.06,718.43,147.55,719.98z"/>
			<path class="st9" d="M196.77,713.11c-0.07-0.51-0.27-1.26-0.83-1.96c-0.68-0.84-1.55-1.17-3.32-1.76
				c-2.99-0.98-4.02-1.2-5.75-1.81c-1.67-0.59-2.88-1.15-3.48-1.43c-1.51-0.71-3.54-1.78-5.79-3.39c-2.29-0.16-6.3-0.12-10.47,1.73
				c0,0-4.85,2.16-6.77,5.83c-0.01,0.02-0.03,0.07-0.04,0.13c-0.19,1.48,9.12,3.78,13.16,4.5
				C178.17,715.8,186.05,716.36,196.77,713.11z"/>
		</g>
		<path class="st10" d="M178.6,705.34c-1.1-0.04-2.73,0.03-4.59,0.59c-2.13,0.64-3.67,1.65-4.59,2.36"/>
		<path class="st10" d="M186.35,709.09c-0.75-0.15-2.4-0.37-4.33,0.28c-1.78,0.6-2.9,1.66-3.42,2.21"/>
	</g>
	<g>
		<g>
			<path class="st8" d="M225.13,719.98c1.1,0.69,2.25,0.62,3.89,0.54c5.3-0.25,10.61-0.22,15.91-0.37c3.87-0.11,4.63,0.17,9.84,0.37
				c5.17,0.2,12.54,0.22,21.75-0.6c0.75-0.7,2.19-2.24,2.06-4.15c-0.17-2.56-3.05-4.18-5.39-5.49c-3.14-1.76-4.43-1.56-8.43-3.06
				c-4.31-1.62-7.29-3.54-9.1-4.73c-2.36-1.54-5.49-3.88-8.67-7.26c-7.82,0.18-15.64,0.35-23.46,0.53c0.12,1.09,0.26,2.72,0.25,4.69
				c-0.01,4.72-0.83,5.94-0.94,10.21C222.74,714.49,222.64,718.43,225.13,719.98z"/>
			<path class="st9" d="M274.35,713.11c-0.07-0.51-0.27-1.26-0.83-1.96c-0.68-0.84-1.55-1.17-3.32-1.76
				c-2.99-0.98-4.02-1.2-5.75-1.81c-1.67-0.59-2.88-1.15-3.48-1.43c-1.51-0.71-3.54-1.78-5.79-3.39c-2.29-0.16-6.3-0.12-10.47,1.73
				c0,0-4.85,2.16-6.77,5.83c-0.01,0.02-0.03,0.07-0.04,0.13c-0.19,1.48,9.12,3.78,13.16,4.5
				C255.74,715.8,263.63,716.36,274.35,713.11z"/>
		</g>
		<path class="st10" d="M256.18,705.34c-1.1-0.04-2.73,0.03-4.59,0.59c-2.13,0.64-3.67,1.65-4.59,2.36"/>
		<path class="st10" d="M263.93,709.09c-0.75-0.15-2.4-0.37-4.33,0.28c-1.78,0.6-2.9,1.66-3.42,2.21"/>
	</g>
	<g>
		<path class="st11" d="M292.2,397.99c1.7-0.68,2.96-1.44,3.79-2.01c3.33-2.27,5.27-5.15,6.87-7.45c1.2-1.73,1.75-3.03,2.78-5.46
			c2.81-6.68,2.16-9.49,5.23-11.41c0.71-0.44,2.53-1.58,4.07-1.12c4.28,1.29,5.36,16.76-1.84,26.51
			c-5.11,6.93-12.89,9.01-16.13,9.66C295.38,403.82,293.79,400.91,292.2,397.99z"/>
		<path class="st7" d="M295.96,409.81c0.82-0.12,2.29-0.34,3.25-1.49c1.37-1.63,0.68-4.13-1.67-13.74
			c-0.52-2.14-1.05-3.96-1.48-5.36c-4.2,0.18-12.23-0.04-21.1-4.09c-7.21-3.29-12.01-7.75-14.7-10.68
			c0.26-15.05-2.81-26.51-5.25-33.43c-0.42-1.19-3.76-10.44-11.43-20.11c-6-7.57-8.5-7.63-9.63-7.43
			c-3.13,0.58-5.53,5.09-6.24,11.08c-2.96,30.68-2.83,42.06-1.66,45.21c0.05,0.13,0.43,1.15,0.91,2.57c1.28,3.78,2.05,7,2.49,9.07
			c0.09,0.45,0.17,0.83,0.24,1.16c0.12,0.61,0.21,1.06,0.21,1.09c0.12,0.66,1.47,4.24,5.08,13.18c0.22,0.92,0.63,2.26,1.49,3.68
			c2.64,4.36,7.36,5.99,10.85,7c6.86,1.98,11.41,2.23,26.38,3.63C273.69,411.16,281.31,411.88,295.96,409.81z"/>
		<g>
			<g>
				<g>
					<g>
						<path class="st12" d="M152.22,441.4c-1.37,2.86-3.17,6.9-4.93,11.86c-3.94,11.15-5.48,20.78-6.3,28.35
							c-1.94,17.83,0.21,22.71,0.53,54.51c0.13,12.43-0.21,11.05-0.1,28.97c0.11,18.18,0.45,18.69,0.62,36.14
							c0.33,32.95-0.89,32.17,0.39,44.89c0.94,9.39,1.98,13.57,1.54,22.23c-0.97,18.72-1.2,20.48-1.2,20.48
							c0.1,2.01,0.36,4.97,1.15,8.48c0.57,2.55,0.86,3.82,1.31,4.59c3.73,6.34,18.56,3.43,24.54,1.65c3.22-0.96,6.01-2.23,7.03-4.73
							c0.81-1.97,0.21-3.93,0.03-4.57c-1.67-5.93,1.58-12.11,2.25-37.27c0.1-3.71,0.4-14.63,1.13-25.3
							c1.42-20.73,3.34-24.05,5.2-43.04c2.32-23.74,0.05-25.98,2.25-45.41c1.9-16.78,5.29-30.12,7.75-38.5
							c1.58,3.74,3.61,8.85,5.66,15.05c3.68,11.08,5.82,20.74,7.33,29.05c2.71,14.95,2.66,21.63,5,49.35
							c0.92,10.89,1.23,11.21,2.76,28.45c0.68,7.61,1.01,11.42,1.23,14.6c1.75,25.3,2.95,37.92,2.67,45.15
							c-0.23,5.92-0.73,11.12,2.61,13.91c0.69,0.58,1.7,1.18,12.72,2.27c6.49,0.64,8.45,0.66,10.62,0.49
							c4.41-0.35,8.36-0.67,9.85-3.24c0.87-1.5-0.26-1.76,0.47-6.66c0,0,0.7-3.65,0.7-6.24c0,0,0.16-1.62,0.24-3.26
							c1.15-24.99,0.11-47.55,0.1-47.66v0c0-13.58-1.29-19.29-1.88-31.05c-0.17-3.34-0.22-5.58-0.26-9.94
							c-0.14-12.6,0.47-20.49,0.48-26.21c0.03-24.33-2.78-42.73-6.58-67.55c0,0-2.1-13.73-7.66-40.25
							c-0.45-2.16-1.23-5.74-2.51-10.29c-0.99-3.51-1.92-6.36-2.57-8.26c-14.76-0.05-29.65-0.16-44.65-0.35
							C178.48,441.89,165.3,441.67,152.22,441.4z"/>
					</g>
				</g>
			</g>
			<g>
				<path d="M239.32,335.74c-0.31,0-0.6-0.17-0.75-0.46c-0.22-0.42-0.05-0.94,0.36-1.16l2.19-1.15c2.07-1.09,4.72-3.53,4.75-3.56
					c0.35-0.32,0.88-0.3,1.2,0.05c0.32,0.35,0.29,0.89-0.05,1.21c-0.12,0.11-2.85,2.63-5.11,3.82l-2.19,1.15
					C239.59,335.71,239.46,335.74,239.32,335.74z"/>
				<g>
					<path class="st7" d="M166.73,295.68c-4.24,0.88-19.85,4.37-30.89,18.14c-2.31,2.88-7.92,15.04-8.7,25.91
						c-0.06,0.86,0.36,1.67,1.07,2.1l18.2,11c0.68,0.41,1.1,1.18,1.07,2.01c-0.48,16.48-3.2,26.93-3.99,50.74
						c-0.05,1.41,0.13,3.27,0.14,6.41c0.01,8.2-0.61,14.31-0.89,17.12c-1.8,18.25-2.66,27.41-0.7,29.4
						c4.22,4.27,11.7-0.09,26.6-1.05c12.88-0.83,23.62,1.29,30.93,3.33c0,0,9.81,1.75,27.78,1.58c10.15-0.1,13.03-0.83,14.62-3.1
						c2.03-2.91,0.16-6.36-1.15-13.52c-0.29-1.56-0.33-2.88-0.61-4.82c-0.6-4.08-1.23-6.98-1.39-7.78
						c-1.82-8.89,0.56-18.63-0.02-30.18c-0.04-0.78-0.18-3.15-0.17-6.4c0.03-8.61,0.86-15.08,1.42-19.35
						c3.51-26.76,10.33-37.58,5.51-52.17c-0.53-1.62-1.35-3.17-2.51-4.75c-2.72-3.71-6.93-8.54-24.74-15.83
						c-6.2-2.53-9.34-3.82-14.18-5.21C193.44,296.19,181.16,292.67,166.73,295.68z"/>
				</g>
			</g>
			<g>
				<path class="st7" d="M239.49,385.54c-0.31,0.82-0.61,1.64-0.92,2.46c-0.89-0.2-1.78-0.39-2.67-0.59
					c2.43-16.08,4.86-32.16,7.29-48.24c0.33-5.24,0.65-10.48,0.98-15.72c0.85,1.24,1.69,2.48,2.54,3.72
					c0.92,2.49,1.71,5.14,2.32,7.96C253.67,356.67,245.02,375.75,239.49,385.54z"/>
				<path d="M216.54,261.18c1.82,0.22,3.95,0.68,7.18,0.23c3.78-0.52,7.93-3.32,9.49-7.41c1.88-4.94-0.83-9.65-2.54-12.62
					c-1.7-2.95-3.87-6.24-7.63-7.66c-4.9-1.85-6.95,0.99-12.56-0.75c-4.56-1.42-4.23-3.62-8.29-4.77
					c-3.39-0.96-13.14-0.41-15.32,4.77c-1.39,3.29,1.6,5.29,0.11,10.17c-0.83,2.7-2.02,2.98-3.33,5.55
					c-0.69,1.37-2.03,4.6-0.48,14.18c1.64,10.07,2.46,15.11,4.93,15.96"/>
				<g>
					<path class="st11" d="M221.68,252.56c0.12,0.07,0.19,0.19,0.18,0.33c-0.03,0.43,1.01,3.28,0.33,8.69
						c-0.49,3.86-1.55,6.7-2.39,8.95c-0.04,0.1-0.51,1.24-1.46,3.52c0,0-1.3,3.14-3.4,7.29c-0.81,1.61-1.35,2.55-2.46,3.07
						c-0.66,0.31-1.46,0.46-2.4,0.36c-0.36-0.04-1.43-0.28-2.26-0.48c-0.6-0.14-1.2,0.26-1.29,0.88
						c-1.37,8.79,7.43,18.68,9.54,20.94c0.22,0.23,0.14,0.62-0.15,0.74c-19.5,8.59-39.56-6.24-45.04-10.85
						c-0.18-0.15,5.16-1.66,10.04-6.98c1.17-1.27,2.55-3.57,5.22-8.26c4.49-7.9,2.24-6.04,5.25-11.08c0.85-1.42,2.01-3.22,1.4-4.9
						c-0.45-1.24-1.46-1.28-2.1-2.8c-0.51-1.21-0.78-3.33,0.52-4.55c0.85-0.8,2.18-1.04,3.22-0.7c1.39,0.45,1.42,1.67,2.2,1.72
						c2.13,0.13,4.61-8.83,4.61-8.83s0.79-4.17,7.15-2.57C214.14,248.5,220.5,251.91,221.68,252.56z"/>
				</g>
			</g>
		</g>
		<path class="st7" d="M172.86,347.53c-0.14,2.2-0.29,4.41-0.43,6.61c-1.74,0.93-16.37,8.44-31.17,1.31
			c-7.87-3.79-12.1-9.94-13.87-12.93c0.2-1.44,0.41-2.89,0.61-4.33c2.52,2.58,9.66,9.21,21.2,11.55
			C160.51,352.04,169.5,348.89,172.86,347.53z"/>
		<path class="st13" d="M195.41,504.71c0.13-4.05,0.71-7.33,1.24-9.63c0.71-3.12,1.13-4.86,2.41-6.74c2.11-3.1,5.15-4.53,6.87-5.16"
			/>
		<g>
			<path class="st14" d="M318.9,394.61H213.7c-2.6,0-4.71-2.11-4.71-4.71v-0.68h114.62v0.68C323.61,392.5,321.5,394.61,318.9,394.61
				z"/>
			<path class="st14" d="M323.61,389.34h-74.39l23.64-55.2c1.41-1.73,3.88-2.77,6.53-2.77h62.89c2.85,0,4.69,2.2,3.76,4.14
				c-0.37,0.77-0.77,1.53-1.09,2.32L323.61,389.34z"/>
			
				<ellipse transform="matrix(0.3901 -0.9208 0.9208 0.3901 -146.3151 498.5718)" class="st4" cx="303.2" cy="359.74" rx="4.3" ry="3.1"/>
		</g>
		<path class="st11" d="M301.35,394.71c0.01-3.12,0.79-5.01,1.51-6.17c0.22-0.34,0.45-0.63,0.83-1.29c0.54-0.93,1.87-3.98,1.95-4.17
			c0.69-1.59,1.03-2.38,1.46-2.89c2.06-2.42,7.31-2.87,9.25-0.59c0.91,1.07,0.92,2.52,0.7,4.48c-0.35,3.1-1.35,8.01-4.55,13.99
			c-3.76,1.68-7.52,3.36-11.29,5.04C301.26,400.31,301.3,397.51,301.35,394.71z"/>
		<path class="st11" d="M199.54,388.63c2.86-0.7,5.72-1.4,8.58-2.1c1.7,0.37,4.24,0.77,7.31,0.61c3.67-0.18,5.03-1.66,9.14-2.01
			c1.98-0.17,3.35-0.02,5.9,0.26c7.01,0.76,9.3,2.48,12.12,0.97c0.65-0.35,2.32-1.25,2.45-2.63c0.37-3.97-12.89-9.12-24.5-10.15
			c-5.81-0.51-10.54,0.06-13.3,0.53c-2.19-0.68-4.38-1.35-6.57-2.03C200.29,377.6,199.91,383.11,199.54,388.63z"/>
		<path class="st11" d="M306.48,402.17c-2.36,1.27-4.54,1.78-6,2c-0.12-3.19-0.23-6.38-0.35-9.56c0.17,0.05,0.76,0.2,1.23-0.11
			c0.32-0.22,0.42-0.55,0.59-1.07c0.16-0.51,0.21-0.96,0.22-1.27c3.29,1.82,6.58,3.63,9.87,5.45
			C311.02,398.82,309.23,400.69,306.48,402.17z"/>
		<path class="st7" d="M202.88,388.98c-1.22,1.05-3.3,0.45-3.87,0.3c-9.01-2.4-18.67-1.06-27.83-2.8
			c-17.82-3.38-26.09-3.97-35.57-8.53c-2.96-1.42-6.9-3.65-8.53-7.82c-0.74-1.88-0.51-3.18-0.79-8.2
			c-0.41-7.46-0.61-11.19-0.61-11.29c-0.03-4.14,0.39-10.34,2.59-18.19c11.2,1.21,22.4,2.41,33.59,3.62
			c-0.37,7.3-0.73,14.6-1.1,21.91c22.74,8.36,33.57,11.22,38.48,11.55c1.12,0.08,5.36,0.25,6.58,2.73c0.28,0.58,0.29,1.05-0.12,3.91
			c-1.12,7.86-1.43,6.08-1.86,9.78C203.68,387.38,203.65,388.33,202.88,388.98z"/>
		
			<rect x="128.49" y="331.96" transform="matrix(0.9705 0.2412 -0.2412 0.9705 85.3803 -25.5228)" class="st7" width="36.92" height="8.14"/>
	</g>
</g>
<g class="st15">
	<g class="st16">
		<linearGradient id="SVGID_1_" gradientUnits="userSpaceOnUse" x1="557.5476" y1="126.2406" x2="636.7972" y2="126.2406">
			<stop  offset="0" style="stop-color:#FFFFFF;stop-opacity:0"/>
			<stop  offset="0.1767" style="stop-color:#EBEBF5;stop-opacity:0.1767"/>
			<stop  offset="0.3763" style="stop-color:#DCDCEE;stop-opacity:0.3763"/>
			<stop  offset="0.6161" style="stop-color:#D4D4E9;stop-opacity:0.6161"/>
			<stop  offset="1" style="stop-color:#D1D1E8"/>
		</linearGradient>
		<path class="st17" d="M636.65,109.41v33.66H557.7v-33.66H636.65 M636.8,109.26h-79.25v33.96h79.25V109.26L636.8,109.26z"/>
	</g>
	<g class="st16">
		
			<linearGradient id="SVGID_00000074438191982098008030000005428566842909607048_" gradientUnits="userSpaceOnUse" x1="513.401" y1="160.1979" x2="591.8791" y2="160.1979">
			<stop  offset="0" style="stop-color:#FFFFFF;stop-opacity:0"/>
			<stop  offset="0.0362" style="stop-color:#F8F8FC;stop-opacity:0.0362"/>
			<stop  offset="0.1626" style="stop-color:#E7E7F3;stop-opacity:0.1626"/>
			<stop  offset="0.3159" style="stop-color:#DADAED;stop-opacity:0.3159"/>
			<stop  offset="0.5214" style="stop-color:#D3D3E9;stop-opacity:0.5214"/>
			<stop  offset="1" style="stop-color:#D1D1E8"/>
		</linearGradient>
		<path style="fill:url(#SVGID_00000074438191982098008030000005428566842909607048_);" d="M591.73,143.37v33.66h-78.18v-33.66
			H591.73 M591.88,143.22H513.4v33.96h78.48V143.22L591.88,143.22z"/>
	</g>
	<g class="st16">
		<path class="st19" d="M670.99,143.37v33.66h-78.95v-33.66H670.99 M671.14,143.22h-79.25v33.96h79.25V143.22L671.14,143.22z"/>
	</g>
	<g class="st16">
		<path class="st19" d="M747.59,143.37v33.66h-78.95v-33.66H747.59 M747.74,143.22h-79.25v33.96h79.25V143.22L747.74,143.22z"/>
	</g>
	<g class="st16">
		<path class="st19" d="M826.98,143.37v33.66h-78.95v-33.66H826.98 M827.13,143.22h-79.25v33.96h79.25V143.22L827.13,143.22z"/>
	</g>
	<g class="st16">
		<path class="st19" d="M681.7,177.32v33.66h-78.95v-33.66H681.7 M681.85,177.17H602.6v33.96h79.25V177.17L681.85,177.17z"/>
	</g>
	<g class="st16">
		<path class="st19" d="M759.17,177.32v33.66h-78.95v-33.66H759.17 M759.32,177.17h-79.25v33.96h79.25V177.17L759.32,177.17z"/>
	</g>
	<g class="st16">
		<path class="st19" d="M838.37,177.32v33.66h-78.95v-33.66H838.37 M838.52,177.17h-79.25v33.96h79.25V177.17L838.52,177.17z"/>
	</g>
	<g class="st16">
		<path class="st19" d="M715.87,109.41v33.66h-78.95v-33.66H715.87 M716.02,109.26h-79.25v33.96h79.25V109.26L716.02,109.26z"/>
	</g>
	<g class="st16">
		<path class="st19" d="M795.19,109.41v33.66h-78.95v-33.66H795.19 M795.34,109.26h-79.25v33.96h79.25V109.26L795.34,109.26z"/>
	</g>
	<g class="st16">
		
			<linearGradient id="SVGID_00000139277261872055917420000011693195015703014287_" gradientUnits="userSpaceOnUse" x1="874.5458" y1="126.2406" x2="795.2962" y2="126.2406">
			<stop  offset="0" style="stop-color:#FFFFFF;stop-opacity:0"/>
			<stop  offset="1" style="stop-color:#D1D1E8"/>
		</linearGradient>
		<path style="fill:url(#SVGID_00000139277261872055917420000011693195015703014287_);" d="M874.4,109.41v33.66h-78.95v-33.66H874.4
			 M874.55,109.26H795.3v33.96h79.25V109.26L874.55,109.26z"/>
	</g>
	<g class="st16">
		
			<linearGradient id="SVGID_00000137842969827241534640000011358652237795167875_" gradientUnits="userSpaceOnUse" x1="906.361" y1="160.203" x2="827.1115" y2="160.203">
			<stop  offset="0" style="stop-color:#FFFFFF;stop-opacity:0"/>
			<stop  offset="0.0229" style="stop-color:#FBFBFD;stop-opacity:0.0229"/>
			<stop  offset="0.1734" style="stop-color:#E8E8F4;stop-opacity:0.1734"/>
			<stop  offset="0.3488" style="stop-color:#DBDBED;stop-opacity:0.3488"/>
			<stop  offset="0.572" style="stop-color:#D3D3E9;stop-opacity:0.572"/>
			<stop  offset="1" style="stop-color:#D1D1E8"/>
		</linearGradient>
		<path style="fill:url(#SVGID_00000137842969827241534640000011358652237795167875_);" d="M906.21,143.37v33.66h-78.95v-33.66
			H906.21 M906.36,143.22h-79.25v33.96h79.25V143.22L906.36,143.22z"/>
	</g>
	<g class="st16">
		
			<linearGradient id="SVGID_00000003819087884552373240000002033918081777650087_" gradientUnits="userSpaceOnUse" x1="917.7089" y1="194.1089" x2="838.4593" y2="194.1089">
			<stop  offset="0" style="stop-color:#FFFFFF;stop-opacity:0"/>
			<stop  offset="0.1715" style="stop-color:#EDEDF6;stop-opacity:0.1715"/>
			<stop  offset="0.3951" style="stop-color:#DDDDEE;stop-opacity:0.3951"/>
			<stop  offset="0.6496" style="stop-color:#D4D4E9;stop-opacity:0.6496"/>
			<stop  offset="1" style="stop-color:#D1D1E8"/>
		</linearGradient>
		<path style="fill:url(#SVGID_00000003819087884552373240000002033918081777650087_);" d="M917.56,177.28v33.66h-78.95v-33.66
			H917.56 M917.71,177.13h-79.25v33.96h79.25V177.13L917.71,177.13z"/>
	</g>
	<g class="st16">
		
			<linearGradient id="SVGID_00000128459370417847475380000013819589544101549986_" gradientUnits="userSpaceOnUse" x1="669.6694" y1="92.2833" x2="748.9189" y2="92.2833">
			<stop  offset="0" style="stop-color:#FFFFFF;stop-opacity:0"/>
			<stop  offset="0.0417" style="stop-color:#F6F6FB;stop-opacity:0.0417"/>
			<stop  offset="0.1501" style="stop-color:#E5E5F2;stop-opacity:0.1501"/>
			<stop  offset="0.285" style="stop-color:#DADAEC;stop-opacity:0.285"/>
			<stop  offset="0.4744" style="stop-color:#D3D3E9;stop-opacity:0.4744"/>
			<stop  offset="1" style="stop-color:#D1D1E8"/>
		</linearGradient>
		<path style="fill:url(#SVGID_00000128459370417847475380000013819589544101549986_);" d="M748.77,75.45v33.66h-78.95V75.45H748.77
			 M748.92,75.3h-79.25v33.96h79.25V75.3L748.92,75.3z"/>
	</g>
	<g class="st16">
		
			<linearGradient id="SVGID_00000004510781376885022510000006396151726766379139_" gradientUnits="userSpaceOnUse" x1="828.2402" y1="92.2833" x2="748.9907" y2="92.2833">
			<stop  offset="0" style="stop-color:#FFFFFF;stop-opacity:0"/>
			<stop  offset="0.0417" style="stop-color:#F6F6FB;stop-opacity:0.0417"/>
			<stop  offset="0.1501" style="stop-color:#E5E5F2;stop-opacity:0.1501"/>
			<stop  offset="0.285" style="stop-color:#DADAEC;stop-opacity:0.285"/>
			<stop  offset="0.4744" style="stop-color:#D3D3E9;stop-opacity:0.4744"/>
			<stop  offset="1" style="stop-color:#D1D1E8"/>
		</linearGradient>
		<path style="fill:url(#SVGID_00000004510781376885022510000006396151726766379139_);" d="M828.09,75.45v33.66h-78.95V75.45H828.09
			 M828.24,75.3h-79.25v33.96h79.25V75.3L828.24,75.3z"/>
	</g>
</g>
<g>
	<g>
		<circle class="st25" cx="430.9" cy="316.09" r="45.67"/>
		<g>
			<g>
				<g>
					<g>
						<path class="st4" d="M441.34,339.96c-2.19,0-4.58-1.09-5.21-3.17c-0.33-1.09-0.16-2.36,0.47-3.5c0.76-1.37,2.23-3.16,3.7-2.84
							c0.36,0.08,0.75,1.35,0.38,1.43c-1.4,0.3-2.23,1.1-2.8,2.13c-0.44,0.79-0.56,1.65-0.35,2.35c0.52,1.72,2.94,2.3,4.5,2.07
							c1.25-0.19,1.98-0.75,2.38-1.2c0.84-0.93,0.82-1.92,0.64-4.93c-0.06-1.07-0.14-2.36-0.18-3.92c-0.07-2.99,0.05-5.3,0.17-7.53
							c0.1-1.97,0.26-3.55,0.39-4.76c0.08-0.76,0.14-1.38,0.16-1.85c0.24-5.1,0.09-9.07-0.01-11.96c-0.18-5.05-0.27-7.58,1.82-8.84
							c1.92-1.15,4.96-0.6,6.51,1.18c1.2,1.38,1.54,3.48,0.84,5.24c-0.84,2.11-3.64,3.32-5.28,3.29c-0.37-0.01-0.27-1.4,0.09-1.47
							c1.28-0.27,3.23-0.87,3.82-2.37c0.5-1.26,0.27-2.75-0.58-3.72c-1.08-1.23-3.33-1.66-4.64-0.88c-1.3,0.78-1.28,2.75-1.11,7.52
							c0.11,2.92,0.25,6.92,0.01,12.08c-0.02,0.49-0.09,1.13-0.17,1.93c-0.12,1.19-0.28,2.74-0.38,4.66
							c-0.12,2.23-0.23,4.51-0.17,7.44c0.03,1.54,0.11,2.81,0.17,3.87c0.18,3.05,0.27,4.58-1.02,6.01
							c-0.56,0.62-1.58,1.41-3.26,1.67C441.96,339.94,441.66,339.96,441.34,339.96z"/>
					</g>
					<g>
						<path class="st4" d="M414.64,326.61c-0.1,1.65-1.43,1.29-1.47-0.12c-0.07-2.42,0.67-10.41,0.7-15.65
							c0.01-2.35-0.02-4.32-0.04-6c-0.09-5.81-0.12-8.21,1.9-10.3c2.34-2.41,5.3-2.29,13.21-1.99c1.24,0.05,2.62,0.1,4.13,0.15
							c6.09,0.2,12.05,0.21,16.45,0.3c0.37,0.01,2.07,1.32,1.7,1.34c-6.47,0.25-12.08,0.03-18.2-0.16c-1.52-0.05-2.89-0.1-4.14-0.15
							c-7.43-0.29-10.22-0.4-12.09,1.54c-1.6,1.65-1.57,3.72-1.49,9.25c0.02,1.68,0.06,3.66,0.04,6.03
							C415.31,316.13,414.88,322.85,414.64,326.61z"/>
					</g>
					<g>
						<path class="st4" d="M413.86,340.47c-0.36,0-0.7,0-1.02,0c-1.81-0.01-3.52-0.02-5.02-1.25c-0.36-0.29-2.13-1.85-1.99-4.29
							c0.13-2.46,2.13-3.87,2.74-4.24c1.91-1.18,3.94-0.91,5.42-0.71l0.22,0.03c1.86,0.24,3.8,0.17,5.68,0.09
							c1.58-0.06,3.22-0.12,4.84,0c4.89,0.36,11.82,0.15,16.12,0.33c1.24,0.05,1.07,1.47,0.03,1.48
							c-5.54,0.04-11.32,0.03-16.26-0.33c-1.54-0.11-3.14-0.05-4.68,0.01c-1.94,0.07-3.94,0.15-5.92-0.1l-0.23-0.03
							c-1.33-0.17-2.99-0.39-4.46,0.51c-0.46,0.28-1.94,1.32-2.04,3.07c-0.09,1.75,1.29,2.93,1.45,3.06
							c1.03,0.84,2.23,0.91,4.09,0.92c2.2,0.01,5.83-0.01,10.45-0.17c1.76-0.06,2.49-0.03,3.49,0.02c0.84,0.04,1.91,0.08,3.9,0.1
							c4.1,0.04,9.66-0.16,12.57-0.39c0.37-0.03-0.63,1.33-1,1.35c-4.76,0.27-7.46,0.55-11.58,0.52c-2.02-0.02-3.1-0.06-3.95-0.1
							c-1.01-0.05-1.68-0.07-3.23-0.02C419.38,340.43,416.11,340.47,413.86,340.47z"/>
					</g>
				</g>
				<path class="st4" d="M421.49,311.07c0.01,0.38,0.43,0.74,1.34,0.74h0.04c5.05-0.07,10.13,0.07,15.12,0.39
					c0.46,0.03,0.83-0.05,1.07-0.21c0.3-0.21,0.34-0.56,0.1-0.85c-0.13-0.16-0.48-0.46-1.26-0.51c-4.96-0.31-10.01-0.46-15.02-0.39
					C421.9,310.24,421.47,310.68,421.49,311.07z"/>
				<path class="st4" d="M421.49,318.68c0.01,0.38,0.43,0.74,1.34,0.74h0.04c5.05-0.07,10.13,0.07,15.12,0.39
					c0.46,0.03,0.83-0.05,1.07-0.21c0.3-0.21,0.34-0.56,0.1-0.85c-0.13-0.16-0.48-0.46-1.26-0.51c-4.96-0.31-10.01-0.46-15.02-0.39
					C421.9,317.85,421.47,318.29,421.49,318.68z"/>
			</g>
		</g>
	</g>
	<g>
		<path class="st4" d="M420.52,299.1v4.35h-0.87v-4.35H420.52z"/>
		<path class="st4" d="M424.29,300.33c0.25,0.26,0.38,0.62,0.38,1.09v2.02h-0.87v-1.91c0-0.27-0.07-0.48-0.21-0.63
			c-0.14-0.15-0.32-0.22-0.56-0.22c-0.24,0-0.43,0.07-0.57,0.22c-0.14,0.15-0.21,0.36-0.21,0.63v1.91h-0.87V300h0.87v0.43
			c0.12-0.15,0.26-0.27,0.45-0.35s0.38-0.13,0.59-0.13C423.71,299.95,424.04,300.07,424.29,300.33z"/>
		<path class="st4" d="M426.94,302.64l0.87-2.65h0.93l-1.28,3.45h-1.06l-1.27-3.45h0.93L426.94,302.64z"/>
		<path class="st4" d="M429.86,303.28c-0.27-0.15-0.47-0.36-0.63-0.63c-0.15-0.27-0.23-0.58-0.23-0.93c0-0.35,0.08-0.66,0.23-0.93
			c0.16-0.27,0.37-0.48,0.64-0.63s0.57-0.22,0.9-0.22s0.63,0.07,0.9,0.22c0.27,0.15,0.48,0.36,0.64,0.63
			c0.16,0.27,0.23,0.58,0.23,0.93c0,0.35-0.08,0.66-0.24,0.93c-0.16,0.27-0.38,0.48-0.65,0.63c-0.27,0.15-0.58,0.22-0.91,0.22
			C430.43,303.5,430.13,303.43,429.86,303.28z M431.21,302.63c0.14-0.08,0.25-0.19,0.33-0.35c0.08-0.15,0.12-0.34,0.12-0.56
			c0-0.33-0.09-0.58-0.26-0.76s-0.38-0.26-0.63-0.26s-0.46,0.09-0.63,0.26s-0.25,0.43-0.25,0.76c0,0.33,0.08,0.58,0.25,0.76
			s0.37,0.26,0.62,0.26C430.92,302.74,431.07,302.7,431.21,302.63z"/>
		<path class="st4" d="M433.26,299.44c-0.1-0.1-0.15-0.22-0.15-0.36c0-0.15,0.05-0.27,0.15-0.36s0.23-0.15,0.38-0.15
			c0.15,0,0.28,0.05,0.38,0.15c0.1,0.1,0.15,0.22,0.15,0.36c0,0.15-0.05,0.27-0.15,0.36c-0.1,0.1-0.23,0.15-0.38,0.15
			C433.49,299.58,433.36,299.54,433.26,299.44z M434.07,300v3.45h-0.87V300H434.07z"/>
		<path class="st4" d="M434.93,300.78c0.15-0.27,0.35-0.48,0.6-0.62s0.55-0.22,0.88-0.22c0.43,0,0.78,0.11,1.06,0.32
			s0.47,0.51,0.56,0.9h-0.94c-0.05-0.15-0.13-0.27-0.25-0.35c-0.12-0.08-0.26-0.13-0.44-0.13c-0.25,0-0.45,0.09-0.59,0.27
			c-0.15,0.18-0.22,0.44-0.22,0.77c0,0.33,0.07,0.58,0.22,0.76c0.15,0.18,0.34,0.27,0.59,0.27c0.35,0,0.58-0.16,0.69-0.47h0.94
			c-0.1,0.37-0.28,0.67-0.57,0.89s-0.64,0.33-1.06,0.33c-0.33,0-0.63-0.07-0.88-0.22s-0.46-0.35-0.6-0.62
			c-0.15-0.27-0.22-0.58-0.22-0.94C434.71,301.36,434.78,301.05,434.93,300.78z"/>
		<path class="st4" d="M441.86,301.98h-2.52c0.02,0.25,0.11,0.44,0.26,0.59c0.15,0.14,0.34,0.21,0.57,0.21
			c0.32,0,0.55-0.14,0.69-0.42h0.94c-0.1,0.33-0.29,0.6-0.57,0.82s-0.63,0.32-1.04,0.32c-0.33,0-0.63-0.07-0.89-0.22
			s-0.47-0.36-0.62-0.63c-0.15-0.27-0.22-0.58-0.22-0.93c0-0.36,0.07-0.67,0.22-0.94c0.15-0.27,0.35-0.48,0.61-0.62
			c0.26-0.15,0.56-0.22,0.9-0.22c0.33,0,0.62,0.07,0.88,0.21c0.26,0.14,0.46,0.34,0.6,0.6c0.14,0.26,0.21,0.56,0.21,0.89
			C441.89,301.77,441.88,301.88,441.86,301.98z M440.99,301.4c0-0.22-0.09-0.4-0.24-0.54s-0.35-0.2-0.58-0.2
			c-0.22,0-0.4,0.06-0.54,0.2s-0.24,0.31-0.27,0.54H440.99z"/>
	</g>
</g>
<g>
	<g>
		<circle class="st26" cx="184.26" cy="83.94" r="46.49"/>
		<path class="st4" d="M209.71,80.5c0.19-3.93,0.03-8.02-0.25-11.43c0.19-3.72,0.08-5.57-4.24-5.04c-1.8-7.26-11.32-2.5-17.48-3.86
			c-4.67-0.18-12.1,0.12-17,0.16c-4.61-0.13-5.35,3.22-4.92,6.27c-3.08-0.67-3.13,3.89-0.75,1.84c0.16-0.04,0.39-0.05,0.68-0.05
			c-0.06,1.02-0.11,2.06,0.02,3.05c-3.06-0.65-3.04,3.88-0.7,1.83c0.22-0.05,0.58-0.06,1.03-0.03c0.21,1,0.35,1.83,0.37,3.08
			c-3.76-0.97-3.99,3.86-1.41,1.81c0.27-0.06,0.77-0.06,1.37,0c-0.04,0.83-0.12,1.82-0.23,3.05c-3.51-0.84-3.63,3.86-1.14,1.82
			c0.2-0.05,0.54-0.05,0.96-0.03c-0.1,0.93-0.25,2.22-0.34,3.06c-2.93-0.66-2.94,3.87-0.62,1.83c0.11-0.03,0.26-0.04,0.44-0.04
			c-0.16,1.76,0.04,1.48,0.1,3.06c-2.88-0.6-2.8,3.88-0.54,1.84c0.14-0.03,0.34-0.04,0.58-0.04c0.01,1.13-0.02,2.14-0.06,3.08
			c-2.88-0.59-2.76,3.87-0.52,1.83c0.11-0.03,0.27-0.04,0.45-0.04c-1.4,8.39,4.84,10.99,11.72,10.59l0-0.07
			c6.83-0.48,16.78-0.22,23.05-0.36c9.03-0.6,4.07-13.25,4.89-19.36C210.65,89.16,209.5,85,209.71,80.5z M203.86,102.89
			c0.64,2.79-3.75,3.21-5.32,3.06c-5.03,0.2-14.2-0.03-19.62,0.25c-5.81,0.61-13.25-0.28-11.6-8.54c3.98,1.31,4.11-1.77,0.07-1.81
			c0.03-0.92,0.06-1.92,0.06-3.03c3.94,1.27,3.84-1.83-0.03-1.83c-0.05-1.78-0.27-1.26-0.11-3.05c3.85,1.31,4.25-1.7,0.18-1.79
			c0.09-0.82,0.23-2.08,0.33-2.99c3.15,1.19,3.49-1.8,0.18-1.79c0.11-1.18,0.19-2.16,0.23-2.99c2.78,1.02,2.83-1.89,0.05-1.82
			c0-1.28-0.12-2.14-0.3-3.08c3.57,1.09,2.75-2.1-0.38-1.88c-0.18-0.9-0.11-1.97-0.04-3.03c3.6,1.27,3.72-1.84,0.07-1.82
			c0.25-1.81-1.08-4.1,2.09-4.47c5.36-0.27,12.71-0.32,17.97-0.25c6.19,0.89,10.25-1.38,15.21,0.81c1.55,7.06-0.19,12.83,0.54,21.01
			C202.93,90.67,204.36,96.65,203.86,102.89z M208.03,74.9c-0.1,2.99-0.05,8.83-0.36,11.52c-0.38,0.16-1.43,0.14-2.48,0.09
			c0.08-7.69-0.31-13.78,0.13-20.69c0.68-0.11,1.95,0.13,2.32,0.01C207.5,68.82,207.87,71.64,208.03,74.9z"/>
	</g>
	<path class="st4" d="M179.97,90.2c-4.85-1.64,0.63,7.66,4.24,6.43c0.1,0.73,1.3,0.74,1.42,0.01c0.44-0.03,0.87-0.08,1.31-0.16
		c0.4,2.59,3.05,2.01,1.91-0.49c8.71-2.39,8.21-13.61-1.13-13.8c-0.3-2.68-0.66-5.33-1.19-7.97c1.72,0.23,3.51,0.81,3.92,1.83
		c2.13-0.73-1.61-4.08-4.37-3.88c-0.46-2.98-1.55-3.57-0.94-0.06c-0.66-0.01-1.32,0.04-1.96,0.14c0-2.27-0.99-1.77-0.9,0.19
		c-6.72,1.44-4.01,9.7,1.14,11.19c0.37,3.31,0.17,6.69,0.41,9.99C182.34,93.02,180.98,91.84,179.97,90.2z M191.07,91.9
		c-0.82,0.8-1.68,1.35-2.55,1.71c-0.27-2.92-0.18-5.88-0.52-8.77C191.73,85.82,195.54,87.52,191.07,91.9z M181.94,80.1
		c-1.73-1.78-1.71-4.19,0.32-5.37c0.08,2.07,0.41,4.1,0.77,6.21C182.64,80.72,182.28,80.45,181.94,80.1z M186.2,84.41
		c0.32,3.27,0.18,6.29,0.3,9.69c-0.18,0.01-0.35,0.01-0.53,0c0.28-3.32-0.09-6.61-0.67-9.89C185.59,84.27,185.89,84.33,186.2,84.41z
		 M183.45,74.26c0.47-0.13,1.11-0.16,1.91-0.13c0.26,2.58,0.47,5.18,0.67,7.77c-0.4-0.07-0.8-0.15-1.19-0.25
		C184.35,79.18,183.82,76.72,183.45,74.26z"/>
</g>
<g>
	<path d="M137.47,16.75c-0.83,0.81-2.1,1.21-3.81,1.21h-2.81v6.11h-1.91V9.43h4.72c1.65,0,2.91,0.4,3.77,1.2
		c0.86,0.8,1.29,1.83,1.29,3.09C138.72,14.93,138.3,15.94,137.47,16.75z M136.01,15.69c0.5-0.46,0.76-1.12,0.76-1.97
		c0-1.81-1.04-2.71-3.11-2.71h-2.81v5.38h2.81C134.72,16.38,135.51,16.15,136.01,15.69z"/>
	<path d="M144.44,12.9c0.62-0.36,1.38-0.55,2.28-0.55v1.97h-0.5c-2.14,0-3.21,1.16-3.21,3.49v6.26h-1.91V12.56H143v1.87
		C143.34,13.77,143.82,13.26,144.44,12.9z"/>
	<path d="M148.99,10.31c-0.25-0.25-0.38-0.56-0.38-0.92c0-0.36,0.13-0.67,0.38-0.92s0.56-0.38,0.92-0.38c0.35,0,0.65,0.13,0.89,0.38
		c0.24,0.25,0.37,0.56,0.37,0.92c0,0.36-0.12,0.67-0.37,0.92c-0.25,0.25-0.54,0.38-0.89,0.38
		C149.55,10.69,149.24,10.56,148.99,10.31z M150.83,12.56v11.51h-1.91V12.56H150.83z"/>
	<path d="M154.09,15.17c0.48-0.89,1.14-1.58,1.98-2.07c0.85-0.49,1.82-0.73,2.91-0.73c1.41,0,2.58,0.34,3.5,1.03
		s1.52,1.64,1.82,2.86h-2.06c-0.2-0.7-0.58-1.25-1.14-1.66c-0.57-0.41-1.27-0.61-2.11-0.61c-1.09,0-1.97,0.38-2.65,1.12
		c-0.67,0.75-1.01,1.81-1.01,3.18c0,1.39,0.34,2.46,1.01,3.21c0.67,0.76,1.55,1.13,2.65,1.13c0.84,0,1.54-0.2,2.1-0.59
		c0.56-0.39,0.95-0.95,1.16-1.68h2.06c-0.31,1.18-0.92,2.12-1.85,2.82c-0.92,0.71-2.08,1.06-3.47,1.06c-1.09,0-2.06-0.24-2.91-0.73
		c-0.85-0.49-1.51-1.18-1.98-2.08c-0.48-0.9-0.71-1.95-0.71-3.15C153.38,17.1,153.61,16.06,154.09,15.17z"/>
	<path d="M177.27,19.03h-9.2c0.07,1.13,0.46,2.02,1.17,2.66s1.56,0.96,2.57,0.96c0.83,0,1.52-0.19,2.07-0.58
		c0.55-0.39,0.94-0.9,1.17-1.54h2.06c-0.31,1.11-0.92,2.01-1.85,2.7c-0.92,0.69-2.07,1.04-3.44,1.04c-1.09,0-2.07-0.24-2.93-0.73
		s-1.54-1.19-2.03-2.09c-0.49-0.9-0.74-1.95-0.74-3.14s0.24-2.23,0.71-3.13c0.48-0.9,1.14-1.59,2.01-2.07
		c0.86-0.48,1.85-0.72,2.97-0.72c1.09,0,2.06,0.24,2.9,0.71c0.84,0.48,1.49,1.13,1.94,1.96c0.45,0.83,0.68,1.77,0.68,2.82
		C177.34,18.24,177.32,18.62,177.27,19.03z M174.88,15.59c-0.32-0.52-0.76-0.92-1.31-1.2c-0.55-0.27-1.17-0.41-1.84-0.41
		c-0.97,0-1.79,0.31-2.47,0.92c-0.68,0.62-1.07,1.47-1.17,2.56h7.27C175.36,16.75,175.2,16.12,174.88,15.59z"/>
	<path d="M194.25,17.18c0.44,0.35,0.79,0.78,1.05,1.3c0.26,0.52,0.39,1.07,0.39,1.66c0,0.74-0.19,1.41-0.57,2.01
		s-0.93,1.06-1.65,1.41c-0.72,0.34-1.57,0.51-2.55,0.51h-5.46V9.43h5.25c0.99,0,1.84,0.17,2.54,0.49c0.7,0.33,1.22,0.77,1.57,1.33
		c0.35,0.56,0.52,1.19,0.52,1.89c0,0.87-0.23,1.59-0.7,2.15c-0.47,0.57-1.09,0.98-1.86,1.23C193.32,16.61,193.81,16.83,194.25,17.18
		z M187.37,15.75h3.21c0.9,0,1.59-0.21,2.08-0.63c0.49-0.42,0.74-1,0.74-1.74c0-0.74-0.25-1.32-0.74-1.74s-1.2-0.63-2.12-0.63h-3.17
		V15.75z M192.98,21.82c0.53-0.45,0.8-1.07,0.8-1.87c0-0.81-0.28-1.45-0.84-1.92c-0.56-0.47-1.31-0.7-2.25-0.7h-3.32v5.17h3.38
		C191.71,22.49,192.45,22.27,192.98,21.82z"/>
	<path d="M200.43,23.52c-0.88-0.49-1.56-1.19-2.06-2.09c-0.5-0.9-0.75-1.95-0.75-3.14c0-1.18,0.26-2.22,0.77-3.12
		c0.51-0.9,1.21-1.6,2.09-2.08c0.88-0.48,1.87-0.72,2.96-0.72c1.09,0,2.08,0.24,2.96,0.72c0.88,0.48,1.58,1.17,2.09,2.07
		c0.51,0.9,0.77,1.94,0.77,3.13s-0.26,2.24-0.79,3.14c-0.52,0.9-1.24,1.6-2.13,2.09c-0.9,0.49-1.89,0.73-2.98,0.73
		C202.28,24.26,201.3,24.01,200.43,23.52z M205.29,22.09c0.6-0.32,1.09-0.8,1.46-1.45s0.56-1.43,0.56-2.35
		c0-0.92-0.18-1.71-0.55-2.35c-0.36-0.64-0.84-1.12-1.43-1.44c-0.59-0.31-1.23-0.47-1.91-0.47c-0.7,0-1.34,0.16-1.92,0.47
		s-1.05,0.79-1.4,1.44s-0.52,1.43-0.52,2.35c0,0.94,0.17,1.73,0.51,2.37c0.34,0.64,0.8,1.12,1.38,1.44c0.57,0.31,1.2,0.47,1.89,0.47
		C204.04,22.58,204.69,22.42,205.29,22.09z"/>
	<path d="M213.87,23.52c-0.88-0.49-1.56-1.19-2.06-2.09c-0.5-0.9-0.75-1.95-0.75-3.14c0-1.18,0.26-2.22,0.77-3.12
		c0.51-0.9,1.21-1.6,2.09-2.08c0.88-0.48,1.87-0.72,2.96-0.72c1.09,0,2.08,0.24,2.96,0.72c0.88,0.48,1.58,1.17,2.09,2.07
		c0.51,0.9,0.77,1.94,0.77,3.13s-0.26,2.24-0.79,3.14c-0.52,0.9-1.24,1.6-2.13,2.09c-0.9,0.49-1.89,0.73-2.98,0.73
		C215.72,24.26,214.74,24.01,213.87,23.52z M218.73,22.09c0.6-0.32,1.09-0.8,1.46-1.45s0.56-1.43,0.56-2.35
		c0-0.92-0.18-1.71-0.55-2.35c-0.36-0.64-0.84-1.12-1.43-1.44c-0.59-0.31-1.23-0.47-1.91-0.47c-0.7,0-1.34,0.16-1.92,0.47
		s-1.05,0.79-1.4,1.44s-0.52,1.43-0.52,2.35c0,0.94,0.17,1.73,0.51,2.37c0.34,0.64,0.8,1.12,1.38,1.44c0.57,0.31,1.2,0.47,1.89,0.47
		C217.48,22.58,218.12,22.42,218.73,22.09z"/>
	<path d="M231.64,24.07l-4.52-5.08v5.08h-1.91V8.53h1.91v9.14l4.43-5.1h2.67l-5.42,5.73l5.44,5.77H231.64z"/>
	<path d="M237.73,23.8c-0.7-0.3-1.25-0.72-1.66-1.26c-0.41-0.54-0.63-1.16-0.67-1.86h1.97c0.06,0.57,0.33,1.04,0.81,1.41
		c0.48,0.36,1.12,0.55,1.9,0.55c0.73,0,1.3-0.16,1.72-0.48c0.42-0.32,0.63-0.73,0.63-1.22c0-0.5-0.22-0.88-0.67-1.12
		c-0.45-0.24-1.14-0.49-2.08-0.72c-0.85-0.22-1.55-0.45-2.09-0.68c-0.54-0.23-1-0.57-1.39-1.03c-0.39-0.45-0.58-1.05-0.58-1.8
		c0-0.59,0.18-1.13,0.53-1.62c0.35-0.49,0.85-0.88,1.49-1.17c0.64-0.29,1.38-0.43,2.21-0.43c1.27,0,2.3,0.32,3.09,0.97
		s1.2,1.53,1.26,2.65h-1.91c-0.04-0.6-0.28-1.08-0.72-1.45c-0.44-0.36-1.03-0.55-1.77-0.55c-0.69,0-1.23,0.15-1.64,0.44
		s-0.61,0.68-0.61,1.16c0,0.38,0.12,0.69,0.37,0.93c0.24,0.25,0.55,0.44,0.92,0.59s0.89,0.31,1.54,0.49
		c0.83,0.22,1.5,0.44,2.02,0.66c0.52,0.22,0.96,0.54,1.33,0.98c0.37,0.43,0.56,1,0.58,1.7c0,0.63-0.18,1.2-0.52,1.7
		c-0.35,0.5-0.84,0.9-1.48,1.19c-0.64,0.29-1.37,0.43-2.19,0.43C239.22,24.26,238.43,24.11,237.73,23.8z"/>
</g>
<g>
	<path d="M307,78.23c-0.83,0.81-2.1,1.21-3.81,1.21h-2.81v6.11h-1.91V70.91h4.72c1.65,0,2.91,0.4,3.77,1.2
		c0.86,0.8,1.29,1.83,1.29,3.09C308.25,76.42,307.83,77.43,307,78.23z M305.54,77.17c0.5-0.46,0.76-1.12,0.76-1.97
		c0-1.81-1.04-2.71-3.11-2.71h-2.81v5.38h2.81C304.25,77.87,305.04,77.63,305.54,77.17z"/>
	<path d="M310.62,76.66c0.48-0.89,1.13-1.58,1.96-2.07c0.83-0.49,1.76-0.73,2.78-0.73c1.01,0,1.88,0.22,2.62,0.65
		s1.29,0.98,1.66,1.64v-2.1h1.93v11.51h-1.93v-2.14c-0.38,0.67-0.94,1.23-1.69,1.67c-0.75,0.44-1.62,0.66-2.61,0.66
		c-1.02,0-1.95-0.25-2.77-0.76s-1.48-1.21-1.95-2.12c-0.48-0.91-0.71-1.95-0.71-3.11C309.91,78.58,310.15,77.55,310.62,76.66z
		 M319.13,77.51c-0.35-0.64-0.82-1.14-1.42-1.48c-0.6-0.34-1.25-0.51-1.96-0.51c-0.71,0-1.37,0.17-1.95,0.5s-1.06,0.83-1.41,1.47
		s-0.52,1.4-0.52,2.27c0,0.88,0.17,1.65,0.52,2.3s0.82,1.15,1.41,1.49s1.24,0.51,1.95,0.51c0.71,0,1.37-0.17,1.96-0.51
		c0.59-0.34,1.07-0.84,1.42-1.49c0.35-0.65,0.52-1.41,0.52-2.28S319.48,78.15,319.13,77.51z"/>
	<path d="M334.73,74.04l-6.93,16.93h-1.97l2.27-5.54l-4.64-11.38h2.12l3.61,9.32l3.57-9.32H334.73z"/>
	<path d="M352.88,74.39c0.7,0.37,1.25,0.93,1.66,1.67c0.41,0.74,0.61,1.65,0.61,2.71v6.78h-1.89v-6.51c0-1.15-0.28-2.03-0.85-2.64
		s-1.33-0.91-2.3-0.91c-0.99,0-1.79,0.32-2.37,0.96c-0.59,0.64-0.88,1.56-0.88,2.76v6.34h-1.89v-6.51c0-1.15-0.28-2.03-0.85-2.64
		s-1.33-0.91-2.3-0.91c-0.99,0-1.79,0.32-2.37,0.96c-0.59,0.64-0.88,1.56-0.88,2.76v6.34h-1.91V74.04h1.91v1.66
		c0.38-0.6,0.89-1.06,1.52-1.39s1.34-0.48,2.11-0.48c0.97,0,1.82,0.22,2.56,0.65c0.74,0.43,1.29,1.07,1.66,1.91
		c0.32-0.81,0.85-1.44,1.6-1.89c0.74-0.45,1.57-0.67,2.48-0.67C351.38,73.83,352.17,74.02,352.88,74.39z"/>
	<path d="M368.71,80.51h-9.2c0.07,1.13,0.46,2.02,1.17,2.66s1.56,0.96,2.57,0.96c0.83,0,1.52-0.19,2.07-0.58
		c0.55-0.39,0.94-0.9,1.17-1.54h2.06c-0.31,1.11-0.92,2.01-1.85,2.7c-0.92,0.69-2.07,1.04-3.44,1.04c-1.09,0-2.07-0.24-2.93-0.73
		s-1.54-1.19-2.03-2.09c-0.49-0.9-0.74-1.95-0.74-3.14s0.24-2.23,0.71-3.13c0.48-0.9,1.14-1.59,2.01-2.07
		c0.86-0.48,1.85-0.72,2.97-0.72c1.09,0,2.06,0.24,2.9,0.71c0.84,0.48,1.49,1.13,1.94,1.96c0.45,0.83,0.68,1.77,0.68,2.82
		C368.77,79.72,368.75,80.11,368.71,80.51z M366.31,77.08c-0.32-0.52-0.76-0.92-1.31-1.2c-0.55-0.27-1.17-0.41-1.84-0.41
		c-0.97,0-1.79,0.31-2.47,0.92c-0.68,0.62-1.07,1.47-1.17,2.56h7.27C366.8,78.23,366.64,77.6,366.31,77.08z"/>
	<path d="M380.3,75.1c0.87,0.85,1.3,2.07,1.3,3.66v6.78h-1.89v-6.51c0-1.15-0.29-2.03-0.86-2.64s-1.36-0.91-2.35-0.91
		c-1.01,0-1.81,0.31-2.4,0.95c-0.6,0.63-0.89,1.55-0.89,2.75v6.36h-1.91V74.04h1.91v1.64c0.38-0.59,0.89-1.04,1.54-1.36
		c0.65-0.32,1.37-0.48,2.15-0.48C378.3,73.83,379.43,74.26,380.3,75.1z"/>
	<path d="M387.06,75.62v6.78c0,0.56,0.12,0.96,0.36,1.19c0.24,0.23,0.65,0.35,1.24,0.35h1.41v1.62h-1.72
		c-1.06,0-1.86-0.24-2.39-0.73c-0.53-0.49-0.8-1.29-0.8-2.42v-6.78h-1.49v-1.57h1.49v-2.9h1.91v2.9h3v1.57H387.06z"/>
	<path d="M394.08,85.29c-0.7-0.3-1.25-0.72-1.66-1.26c-0.41-0.54-0.63-1.16-0.67-1.86h1.97c0.06,0.57,0.33,1.04,0.81,1.41
		c0.48,0.36,1.12,0.55,1.9,0.55c0.73,0,1.3-0.16,1.72-0.48c0.42-0.32,0.63-0.73,0.63-1.22c0-0.5-0.22-0.88-0.67-1.12
		c-0.45-0.24-1.14-0.49-2.08-0.72c-0.85-0.22-1.55-0.45-2.09-0.68c-0.54-0.23-1-0.57-1.39-1.03c-0.39-0.45-0.58-1.05-0.58-1.8
		c0-0.59,0.18-1.13,0.53-1.62c0.35-0.49,0.85-0.88,1.49-1.17c0.64-0.29,1.38-0.43,2.21-0.43c1.27,0,2.3,0.32,3.09,0.97
		s1.2,1.53,1.26,2.65h-1.91c-0.04-0.6-0.28-1.08-0.72-1.45c-0.44-0.36-1.03-0.55-1.77-0.55c-0.69,0-1.23,0.15-1.64,0.44
		s-0.61,0.68-0.61,1.16c0,0.38,0.12,0.69,0.37,0.93c0.24,0.25,0.55,0.44,0.92,0.59s0.89,0.31,1.54,0.49
		c0.83,0.22,1.5,0.44,2.02,0.66c0.52,0.22,0.96,0.54,1.33,0.98c0.37,0.43,0.56,1,0.58,1.7c0,0.63-0.18,1.2-0.52,1.7
		c-0.35,0.5-0.84,0.9-1.48,1.19c-0.64,0.29-1.37,0.43-2.19,0.43C395.57,85.74,394.78,85.59,394.08,85.29z"/>
</g>
<g>
	<path d="M393.37,244.16v14.64h-1.91v-14.64H393.37z"/>
	<path d="M405.63,248.35c0.87,0.85,1.3,2.07,1.3,3.66v6.78h-1.89v-6.51c0-1.15-0.29-2.03-0.86-2.64s-1.36-0.91-2.35-0.91
		c-1.01,0-1.81,0.31-2.4,0.95c-0.6,0.63-0.89,1.55-0.89,2.75v6.36h-1.91v-11.51h1.91v1.64c0.38-0.59,0.89-1.04,1.54-1.36
		c0.65-0.32,1.37-0.48,2.15-0.48C403.63,247.08,404.76,247.51,405.63,248.35z"/>
	<path d="M414.35,257.04l3.57-9.74h2.04l-4.51,11.51h-2.23l-4.52-11.51h2.06L414.35,257.04z"/>
	<path d="M423.93,258.25c-0.88-0.49-1.56-1.19-2.06-2.09c-0.5-0.9-0.75-1.95-0.75-3.14c0-1.18,0.26-2.22,0.77-3.12
		c0.51-0.9,1.21-1.6,2.09-2.08c0.88-0.48,1.87-0.72,2.96-0.72c1.09,0,2.08,0.24,2.96,0.72c0.88,0.48,1.58,1.17,2.09,2.07
		c0.51,0.9,0.77,1.94,0.77,3.13s-0.26,2.24-0.79,3.14c-0.52,0.9-1.24,1.6-2.13,2.09c-0.9,0.49-1.89,0.73-2.98,0.73
		C425.79,258.99,424.81,258.74,423.93,258.25z M428.8,256.83c0.6-0.32,1.09-0.8,1.46-1.45s0.56-1.43,0.56-2.35
		c0-0.92-0.18-1.71-0.55-2.35c-0.36-0.64-0.84-1.12-1.43-1.44c-0.59-0.31-1.23-0.47-1.91-0.47c-0.7,0-1.34,0.16-1.92,0.47
		s-1.05,0.79-1.4,1.44s-0.52,1.43-0.52,2.35c0,0.94,0.17,1.73,0.51,2.37c0.34,0.64,0.8,1.12,1.38,1.44c0.57,0.31,1.2,0.47,1.89,0.47
		C427.55,257.31,428.19,257.15,428.8,256.83z"/>
	<path d="M435.35,245.05c-0.25-0.25-0.38-0.56-0.38-0.92c0-0.36,0.13-0.67,0.38-0.92s0.56-0.38,0.92-0.38
		c0.35,0,0.65,0.13,0.89,0.38c0.24,0.25,0.37,0.56,0.37,0.92c0,0.36-0.12,0.67-0.37,0.92c-0.25,0.25-0.54,0.38-0.89,0.38
		C435.91,245.42,435.6,245.3,435.35,245.05z M437.2,247.29v11.51h-1.91v-11.51H437.2z"/>
	<path d="M440.45,249.91c0.48-0.89,1.14-1.58,1.98-2.07c0.85-0.49,1.82-0.73,2.91-0.73c1.41,0,2.58,0.34,3.5,1.03
		s1.52,1.64,1.82,2.86h-2.06c-0.2-0.7-0.58-1.25-1.14-1.66c-0.57-0.41-1.27-0.61-2.11-0.61c-1.09,0-1.97,0.38-2.65,1.12
		c-0.67,0.75-1.01,1.81-1.01,3.18c0,1.39,0.34,2.46,1.01,3.21c0.67,0.76,1.55,1.13,2.65,1.13c0.84,0,1.54-0.2,2.1-0.59
		c0.56-0.39,0.95-0.95,1.16-1.68h2.06c-0.31,1.18-0.92,2.12-1.85,2.82c-0.92,0.71-2.08,1.06-3.47,1.06c-1.09,0-2.06-0.24-2.91-0.73
		c-0.85-0.49-1.51-1.18-1.98-2.08c-0.48-0.9-0.71-1.95-0.71-3.15C439.74,251.84,439.97,250.8,440.45,249.91z"/>
	<path d="M463.63,253.76h-9.2c0.07,1.13,0.46,2.02,1.17,2.66s1.56,0.96,2.57,0.96c0.83,0,1.52-0.19,2.07-0.58
		c0.55-0.39,0.94-0.9,1.17-1.54h2.06c-0.31,1.11-0.92,2.01-1.85,2.7c-0.92,0.69-2.07,1.04-3.44,1.04c-1.09,0-2.07-0.24-2.93-0.73
		s-1.54-1.19-2.03-2.09c-0.49-0.9-0.74-1.95-0.74-3.14s0.24-2.23,0.71-3.13c0.48-0.9,1.14-1.59,2.01-2.07
		c0.86-0.48,1.85-0.72,2.97-0.72c1.09,0,2.06,0.24,2.9,0.71c0.84,0.48,1.49,1.13,1.94,1.96c0.45,0.83,0.68,1.77,0.68,2.82
		C463.7,252.97,463.68,253.35,463.63,253.76z M461.24,250.33c-0.32-0.52-0.76-0.92-1.31-1.2c-0.55-0.27-1.17-0.41-1.84-0.41
		c-0.97,0-1.79,0.31-2.47,0.92c-0.68,0.62-1.07,1.47-1.17,2.56h7.27C461.72,251.48,461.56,250.85,461.24,250.33z"/>
	<path d="M467.92,258.54c-0.7-0.3-1.25-0.72-1.66-1.26c-0.41-0.54-0.63-1.16-0.67-1.86h1.97c0.06,0.57,0.33,1.04,0.81,1.41
		c0.48,0.36,1.12,0.55,1.9,0.55c0.73,0,1.3-0.16,1.72-0.48c0.42-0.32,0.63-0.73,0.63-1.22c0-0.5-0.22-0.88-0.67-1.12
		c-0.45-0.24-1.14-0.49-2.08-0.72c-0.85-0.22-1.55-0.45-2.09-0.68c-0.54-0.23-1-0.57-1.39-1.03c-0.39-0.45-0.58-1.05-0.58-1.8
		c0-0.59,0.18-1.13,0.53-1.62c0.35-0.49,0.85-0.88,1.49-1.17c0.64-0.29,1.38-0.43,2.21-0.43c1.27,0,2.3,0.32,3.09,0.97
		s1.2,1.53,1.26,2.65h-1.91c-0.04-0.6-0.28-1.08-0.72-1.45c-0.44-0.36-1.03-0.55-1.77-0.55c-0.69,0-1.23,0.15-1.64,0.44
		s-0.61,0.68-0.61,1.16c0,0.38,0.12,0.69,0.37,0.93c0.24,0.25,0.55,0.44,0.92,0.59s0.89,0.31,1.54,0.49
		c0.83,0.22,1.5,0.44,2.02,0.66c0.52,0.22,0.96,0.54,1.33,0.98c0.37,0.43,0.56,1,0.58,1.7c0,0.63-0.18,1.2-0.52,1.7
		c-0.35,0.5-0.84,0.9-1.48,1.19c-0.64,0.29-1.37,0.43-2.19,0.43C469.41,258.99,468.62,258.84,467.92,258.54z"/>
</g>
<g>
	<path d="M25.18,171.94l-3.49-5.98h-2.31v5.98h-1.91V157.3h4.72c1.11,0,2.04,0.19,2.8,0.57c0.76,0.38,1.33,0.89,1.71,1.53
		c0.38,0.64,0.57,1.38,0.57,2.21c0,1.01-0.29,1.9-0.87,2.67c-0.58,0.77-1.45,1.28-2.61,1.53l3.67,6.13H25.18z M19.38,164.42h2.81
		c1.04,0,1.81-0.26,2.33-0.77c0.52-0.51,0.78-1.19,0.78-2.05c0-0.87-0.26-1.54-0.77-2.02c-0.51-0.48-1.29-0.71-2.34-0.71h-2.81
		V164.42z"/>
	<path d="M40.67,166.9h-9.2c0.07,1.13,0.46,2.02,1.17,2.66s1.56,0.96,2.57,0.96c0.83,0,1.52-0.19,2.07-0.58
		c0.55-0.39,0.94-0.9,1.17-1.54h2.06c-0.31,1.11-0.92,2.01-1.85,2.7c-0.92,0.69-2.07,1.04-3.44,1.04c-1.09,0-2.07-0.24-2.93-0.73
		s-1.54-1.19-2.03-2.09c-0.49-0.9-0.74-1.95-0.74-3.14s0.24-2.23,0.71-3.13c0.48-0.9,1.14-1.59,2.01-2.07
		c0.86-0.48,1.85-0.72,2.97-0.72c1.09,0,2.06,0.24,2.9,0.71c0.84,0.48,1.49,1.13,1.94,1.96c0.45,0.83,0.68,1.77,0.68,2.82
		C40.74,166.11,40.72,166.5,40.67,166.9z M38.28,163.47c-0.32-0.52-0.76-0.92-1.31-1.2c-0.55-0.27-1.17-0.41-1.84-0.41
		c-0.97,0-1.79,0.31-2.47,0.92c-0.68,0.62-1.07,1.47-1.17,2.56h7.27C38.76,164.62,38.6,163.99,38.28,163.47z"/>
	<path d="M45.59,162.01v6.78c0,0.56,0.12,0.96,0.36,1.19c0.24,0.23,0.65,0.35,1.24,0.35h1.41v1.62h-1.72
		c-1.06,0-1.86-0.24-2.39-0.73c-0.53-0.49-0.8-1.29-0.8-2.42v-6.78h-1.49v-1.57h1.49v-2.9h1.91v2.9h3v1.57H45.59z"/>
	<path d="M61.11,160.43v11.51H59.2v-1.7c-0.36,0.59-0.87,1.05-1.52,1.38c-0.65,0.33-1.37,0.49-2.15,0.49c-0.9,0-1.7-0.19-2.42-0.56
		c-0.71-0.37-1.28-0.93-1.69-1.67c-0.41-0.74-0.62-1.65-0.62-2.71v-6.74h1.89v6.49c0,1.13,0.29,2.01,0.86,2.61
		c0.57,0.61,1.36,0.91,2.35,0.91c1.02,0,1.83-0.31,2.41-0.94c0.59-0.63,0.88-1.55,0.88-2.75v-6.32H61.11z"/>
	<path d="M67.69,160.77c0.62-0.36,1.38-0.55,2.28-0.55v1.97h-0.5c-2.14,0-3.21,1.16-3.21,3.49v6.26h-1.91v-11.51h1.91v1.87
		C66.59,161.64,67.07,161.13,67.69,160.77z"/>
	<path d="M81.18,161.49c0.87,0.85,1.3,2.07,1.3,3.66v6.78h-1.89v-6.51c0-1.15-0.29-2.03-0.86-2.64s-1.36-0.91-2.35-0.91
		c-1.01,0-1.81,0.31-2.4,0.95c-0.6,0.63-0.89,1.55-0.89,2.75v6.36h-1.91v-11.51h1.91v1.64c0.38-0.59,0.89-1.04,1.54-1.36
		c0.65-0.32,1.37-0.48,2.15-0.48C79.18,160.22,80.31,160.65,81.18,161.49z"/>
	<path d="M87.31,171.68c-0.7-0.3-1.25-0.72-1.66-1.26c-0.41-0.54-0.63-1.16-0.67-1.86h1.97c0.06,0.57,0.33,1.04,0.81,1.41
		c0.48,0.36,1.12,0.55,1.9,0.55c0.73,0,1.3-0.16,1.72-0.48c0.42-0.32,0.63-0.73,0.63-1.22c0-0.5-0.22-0.88-0.67-1.12
		c-0.45-0.24-1.14-0.49-2.08-0.72c-0.85-0.22-1.55-0.45-2.09-0.68c-0.54-0.23-1-0.57-1.39-1.03c-0.39-0.45-0.58-1.05-0.58-1.8
		c0-0.59,0.18-1.13,0.53-1.62c0.35-0.49,0.85-0.88,1.49-1.17c0.64-0.29,1.38-0.43,2.21-0.43c1.27,0,2.3,0.32,3.09,0.97
		s1.2,1.53,1.26,2.65h-1.91c-0.04-0.6-0.28-1.08-0.72-1.45c-0.44-0.36-1.03-0.55-1.77-0.55c-0.69,0-1.23,0.15-1.64,0.44
		s-0.61,0.68-0.61,1.16c0,0.38,0.12,0.69,0.37,0.93c0.24,0.25,0.55,0.44,0.92,0.59s0.89,0.31,1.54,0.49
		c0.83,0.22,1.5,0.44,2.02,0.66c0.52,0.22,0.96,0.54,1.33,0.98c0.37,0.43,0.56,1,0.58,1.7c0,0.63-0.18,1.2-0.52,1.7
		c-0.35,0.5-0.84,0.9-1.48,1.19c-0.64,0.29-1.37,0.43-2.19,0.43C88.81,172.13,88.01,171.98,87.31,171.68z"/>
</g>
<g>
	<g>
		<g>
			<circle class="st14" cx="54.57" cy="228.79" r="43.18"/>
		</g>
		<g>
			<g>
				<path class="st4" d="M47.11,234.21c-0.01,0-0.01,0-0.02,0v0H47.11z"/>
			</g>
		</g>
	</g>
	<g>
		<g>
			<path class="st4" d="M74.11,238.92c-1.64-2.38-6.98-0.5-9.85-0.99c-8.91-0.08-10.66,0.58-20.28,0.44
				c-5.24,0.2-3.78-13.24-4.05-16.45c0.65-11.18,1.58-12.48-10.89-11.97c-4.1,3.09,7.93,0.86,8.97,2.05
				c1.51,7.17-0.63,13.38,0.79,20.7c-0.32,7.04,4.62,7.74,9.42,7.31c7.17-0.21,10.06-0.55,17.26-0.48c2.66-0.05,5.31-0.25,7.73,0.09
				C73.66,239.68,74.06,239.37,74.11,238.92z"/>
			<path class="st4" d="M51.27,241.7c-6.02-0.09-6.02,9.62,0,9.54C57.29,251.32,57.29,241.61,51.27,241.7z M51.27,249.63
				c-3.94,0.06-3.94-6.38,0-6.32C55.21,243.25,55.21,249.69,51.27,249.63z"/>
			<path class="st4" d="M67.01,241.32c-6.02-0.09-6.02,9.62,0,9.54C73.03,250.94,73.03,241.23,67.01,241.32z M67.01,249.25
				c-3.94,0.06-3.94-6.38,0-6.32C70.95,242.87,70.95,249.31,67.01,249.25z"/>
		</g>
		<g>
			<path class="st4" d="M65.31,231.63c-3.28-0.4,0.29-10.48-8.26-11.1c0.52,9.17-8.78,0.51-10.8-2.39c-2.12-1,5.72-10.16,9.26-8.35
				c1.95,1,0.63,3.27,2.64,3.87C68.66,214.41,72.74,225.13,65.31,231.63z M60.44,215.2c-6.43-1.05-4.09-1.49-5.19-4.01
				c-1.07-1.85-8.4,3.89-7.85,6.24c0.03,0,0.04,0,0.07,0c-0.02,1.16,2.25,3.33,3.7,3.64c1.42,0.58,1.81,2.07,3.74,2.07
				c1.13-0.23-0.51-4,1.31-3.87c7.23,0.5,9.63,6.31,8.6,10.49C69.07,228.94,69.68,217.04,60.44,215.2z"/>
		</g>
	</g>
</g>
<g>
	<circle class="st5" cx="349.84" cy="150.11" r="50"/>
	<g>
		<path class="st27" d="M360.23,158.78c0.05-1.31,2.7-2.01,3.72,1.04c0,0-0.23-1.28-0.08-1.69c0.92-2.58,3.34,1.24,3.51,1.21
			c0,0,0.44-2.66,2.13-1.38c2.06,1.56,2.54,5.31,2.55,5.33c0.34,1.42,0.7,4.05,0.32,5.97c-0.52,2.68-0.89,3.84-0.75,5.68
			c0.17,2.29,1.12,2.84-0.47,5.02c-0.28,0.39-1.7,2.21-4.4,2.36c-1.64,0.09-0.65-2.02-2.02-3.84c-1.43-1.89-3.63-3.66-4.9-4.56
			c-4.1-2.87-6.11-3.52-8.04-5.47c-0.56-0.57-0.64-1.38-0.09-1.91c1.08-1.04,4.03,0.15,5.76,1.23c2.23,1.4,2.52,1.52,2.75,1.38
			c0.42-0.26-2.73-7.46-3.67-9.64c-0.28-0.64-0.82-1.73-1.55-3.55c-0.65-1.62-1.52-4.27-1.05-4.62c1.49-1.09,2.97,2.78,3.55,3.81
			c1.48,2.63,2.45,3.8,3.11,5.62L360.23,158.78z"/>
	</g>
	<g>
		<path class="st4" d="M319.82,135.85c-0.12,3.06,2.63,6.68,3.57,9.37c1.24,3.55,2.99,11.7,8.11,10.73
			c11.95-3.41,23.38-10.48,35.57-13.87c5.52-4.94-2.07-12.6-4.18-17.73c0.03-0.22-0.14-0.43-0.28-0.57
			c-3.35-11.72-13.92-2.84-21.09-0.05c-6.63,4.13-17.53,4.62-21.63,11.48C319.51,135.2,319.64,135.64,319.82,135.85z M362.82,126.42
			c6.99,11.16,7.49,15.37-6.65,18.37c-13.64,3.03-26.38,20.67-31.8-1.42c7.85-2.17,14.96-7.16,22.57-9.98
			c0.27,0.1,0.59,0.01,0.66-0.27C352.88,131.38,357.44,127.79,362.82,126.42z M322.22,133.52c7.81-4.01,16.29-7.01,24.3-10.72
			c4.41-2.14,10.76-7.43,14.05-0.66c-9.22,3.27-19.44,7.42-27.86,11.8c-3.47,1.7-6.98,3.38-10.71,4.4
			C320.83,136.72,320.34,135.2,322.22,133.52z"/>
		<path class="st4" d="M344.38,137.33c-4.69,2.44-13.01,4.61-15.75,7.75C331.33,143.56,345.69,139.34,344.38,137.33z"/>
		<path class="st4" d="M345.09,139.46c-4.99,2.44-11.96,4.27-15.92,7.36c5.55-2,10.63-4.81,16.22-6.69
			C345.82,139.94,345.53,139.27,345.09,139.46z"/>
		<path class="st4" d="M344.07,141.44c-3.94,2.26-9.59,4.22-12.72,6.56C333.06,146.77,346.65,142.62,344.07,141.44z"/>
		<path class="st4" d="M356.98,138.57c-1.53,0.45-3.17,1.29-4.36,2.36c-1.09-0.21,0.5,3.63,1.43,2.81c0.69,0.59,1.68,0.21,2.41-0.15
			c0.12,0.03,0.26-0.04,0.31-0.16C359.05,142.88,358.93,139.11,356.98,138.57z M354.5,142.94c-0.41-0.47-0.36-1.21-0.56-1.78
			c0.24-0.18,0.5-0.34,0.77-0.49c0.12,0.82,0.18,1.65,0.37,2.44C354.87,143.13,354.67,143.09,354.5,142.94z M355.55,142.98
			c-0.03-0.86-0.2-1.74-0.41-2.57c0.11-0.06,0.21-0.1,0.32-0.15c0.08,0.8,0.1,1.8,0.41,2.57
			C355.77,142.88,355.66,142.93,355.55,142.98z M356.62,142.41c-0.29-0.79-0.42-1.61-0.6-2.42c0.04-0.02,0.08-0.04,0.12-0.06
			c0.17,0.76,0.49,1.57,0.68,2.35C356.75,142.33,356.69,142.37,356.62,142.41z M357.49,141.42c-0.21-0.59-0.43-1.25-0.82-1.68
			c0.09-0.03,0.18-0.07,0.28-0.1C357.23,140.21,357.59,140.81,357.49,141.42z"/>
		<path class="st4" d="M358.37,138.82c1.26,2.83,1.82,3.86,4.64,1.53c2.21-3.08-2.96-5.58-4.35-2.16
			C358.4,138.21,358.18,138.53,358.37,138.82z M362.17,138.19c0.25,0.41,0.29,0.76,0.19,1.05c-0.22-0.57-0.48-1.12-0.78-1.64
			C361.77,137.67,361.96,137.86,362.17,138.19z M361.12,137.6c0.21,0.75,0.61,1.5,0.73,2.3c-0.15,0.12-0.33,0.22-0.51,0.31
			c0.11-0.75-0.22-1.7-0.58-2.41C360.88,137.71,361,137.65,361.12,137.6z M359.64,138.69c0.6,2,1.45,1.27,0.41-0.29
			c0.1-0.08,0.19-0.16,0.29-0.25c0.35,0.71,0.31,1.53,0.58,2.25c-0.18,0.07-0.36,0.13-0.53,0.19c-0.31-0.62-0.64-1.22-1.04-1.78
			C359.44,138.79,359.54,138.75,359.64,138.69z"/>
	</g>
</g>
<g>
</g>
<g>
</g>
<g>
</g>
<g>
</g>
<g>
</g>
<g>
</g>
<g>
</g>
<g>
</g>
<g>
</g>
<g>
</g>
<g>
</g>
<g>
</g>
<g>
</g>
<g>
</g>
<g>
</g>
</svg>
